<?xml version="1.0" encoding="UTF-8" standalone="no"?>
<!-- Created with Inkscape (http://www.inkscape.org/) -->

<svg
   width="20"
   height="20"
   viewBox="0 0 5.2916665 5.2916666"
   version="1.1"
   id="svg5"
   inkscape:version="1.2.1 (9c6d41e410, 2022-07-14)"
   sodipodi:docname="banner__gallery--light.svg"
   xmlns:inkscape="http://www.inkscape.org/namespaces/inkscape"
   xmlns:sodipodi="http://sodipodi.sourceforge.net/DTD/sodipodi-0.dtd"
   xmlns="http://www.w3.org/2000/svg"
   xmlns:svg="http://www.w3.org/2000/svg">
  <sodipodi:namedview
     id="namedview7"
     pagecolor="#ffffff"
     bordercolor="#000000"
     borderopacity="0.25"
     inkscape:showpageshadow="2"
     inkscape:pageopacity="0.0"
     inkscape:pagecheckerboard="0"
     inkscape:deskcolor="#d1d1d1"
     inkscape:document-units="mm"
     showgrid="false"
     inkscape:zoom="22.627417"
     inkscape:cx="6.9605824"
     inkscape:cy="13.611806"
     inkscape:window-width="1920"
     inkscape:window-height="1017"
     inkscape:window-x="-8"
     inkscape:window-y="-8"
     inkscape:window-maximized="1"
     inkscape:current-layer="layer1" />
  <defs
     id="defs2" />
  <g
     inkscape:label="Layer 1"
     inkscape:groupmode="layer"
     id="layer1">
    <path
       id="path21249-9"
       style="color:#000000;fill:#217f7f;fill-opacity:1;stroke-width:0.999997;stroke-linecap:round;stroke-linejoin:round"
       d="M 2.9290202 -0.00051676432 C 2.9290202 0.1022901 2.9353585 0.20346557 2.9481405 0.30282389 C 2.8492291 0.29016278 2.7486799 0.28370361 2.6463501 0.28370361 L 2.6458333 0.28370361 L 2.6453166 0.28370361 C 2.4876256 0.28370361 2.3621297 0.15812065 2.3621297 0.00051676432 L 2.3621297 0 L 2.1735107 0 L 2.1735107 0.00051676432 C 2.1735107 0.26020495 2.385483 0.47180583 2.6453166 0.47180583 L 2.6458333 0.47180583 L 2.6463501 0.47180583 C 2.7605675 0.47180583 2.872313 0.48064826 2.9817301 0.49764404 C 3.0043321 0.602625 3.0340179 0.70478123 3.0700968 0.80408529 C 2.9338138 0.77279124 2.792097 0.75654297 2.6463501 0.75654297 L 2.6458333 0.75654297 L 2.6453166 0.75654297 C 2.2266726 0.75654297 1.8892904 0.41892693 1.8892904 0.00051676432 L 1.8892904 0 L 1.7006714 0 L 1.7006714 0.00051676432 C 1.7006714 0.52101268 2.1245301 0.94464518 2.6453166 0.94464518 L 2.6458333 0.94464518 L 2.6463501 0.94464518 C 2.8265827 0.94464518 2.9996753 0.9729739 3.1625977 1.0247437 C 3.2413762 1.1876746 3.3389637 1.3394744 3.4514689 1.4789795 C 3.2226136 1.3205467 2.9452405 1.227832 2.6463501 1.227832 L 2.6458333 1.227832 L 2.6458333 1.2273153 L 2.6453166 1.2273153 C 1.9657203 1.2273153 1.4174845 0.67973466 1.4174845 0.00051676432 L 1.4174845 0 L 1.227832 0 L 1.227832 0.00051676432 C 1.227832 0.7818204 1.8635777 1.4169678 2.6453166 1.4169678 L 2.6458333 1.4169678 L 2.6458333 1.4174845 L 2.6463501 1.4174845 C 3.3259457 1.4174845 3.8741821 1.9655826 3.8741821 2.6447998 L 3.8741821 2.6453166 L 3.8736654 2.6453166 C 3.8736654 3.4266202 4.509411 4.0622843 5.2911499 4.0622843 L 5.2916667 4.0622843 L 5.2916667 3.8726318 L 5.2911499 3.8726318 C 4.6115537 3.8726318 4.0633179 3.3245345 4.0633179 2.6453166 L 4.0638346 2.6453166 L 4.0638346 2.6447998 C 4.0638346 2.3461451 3.9706245 2.0688953 3.8121704 1.8401978 C 3.9518007 1.9524663 4.1044113 2.0489495 4.2674398 2.1275187 C 4.3193087 2.2905425 4.3475382 2.4644619 4.3475382 2.6447998 L 4.3475382 2.6453166 L 4.3465047 2.6453166 C 4.3465047 3.1658124 4.7703634 3.589445 5.2911499 3.589445 L 5.2916667 3.589445 L 5.2916667 3.4013428 L 5.2911499 3.4013428 C 4.8725059 3.4013428 4.5351237 3.0637268 4.5351237 2.6453166 L 4.5356405 2.6453166 L 4.5356405 2.6447998 C 4.5356405 2.4987154 4.5190263 2.3565858 4.4875814 2.2200195 C 4.5868203 2.2559535 4.6891245 2.2853675 4.7940226 2.3078695 C 4.8111636 2.4176799 4.8203776 2.5301215 4.8203776 2.6447998 L 4.8203776 2.6453166 L 4.8193441 2.6453166 C 4.8193441 2.9050047 5.0313164 3.1171224 5.2911499 3.1171224 L 5.2916667 3.1171224 L 5.2916667 2.9290202 L 5.2911499 2.9290202 C 5.133459 2.9290202 5.0079631 2.8029204 5.0079631 2.6453166 L 5.0084798 2.6453166 L 5.0084798 2.6447998 C 5.0084798 2.5420765 5.0016188 2.4407389 4.9888428 2.3414591 C 5.0877947 2.3541141 5.1887826 2.3605794 5.2911499 2.3605794 L 5.2916667 2.3605794 L 5.2916667 2.1724772 L 5.2911499 2.1724772 C 4.0896475 2.1724772 3.1171224 1.2003151 3.1171224 -0.00051676432 L 2.9290202 -0.00051676432 z M 3.4018595 -0.00051676432 C 3.4018595 1.0415932 4.248458 1.8877401 5.2911499 1.8877401 L 5.2916667 1.8877401 L 5.2916667 1.6996379 L 5.2911499 1.6996379 C 4.3506006 1.6996379 3.5899618 0.93950885 3.5899618 -0.00051676432 L 3.4018595 -0.00051676432 z M 3.8736654 -0.00051676432 C 3.8736654 0.78078687 4.509411 1.416451 5.2911499 1.416451 L 5.2916667 1.416451 L 5.2916667 1.2267985 L 5.2911499 1.2267985 C 4.6115537 1.2267985 4.0633179 0.67870114 4.0633179 -0.00051676432 L 3.8736654 -0.00051676432 z M 4.3465047 -0.00051676432 C 4.3465047 0.51997915 4.7703634 0.94361165 5.2911499 0.94361165 L 5.2916667 0.94361165 L 5.2916667 0.75550944 L 5.2911499 0.75550944 C 4.8725059 0.75550944 4.5351237 0.41789341 4.5351237 -0.00051676432 L 4.3465047 -0.00051676432 z M 4.8193441 -0.00051676432 C 4.8193441 0.25917142 5.0313164 0.47128906 5.2911499 0.47128906 L 5.2916667 0.47128906 L 5.2916667 0.28318685 L 5.2911499 0.28318685 C 5.133459 0.28318685 5.0079631 0.15708712 5.0079631 -0.00051676432 L 4.8193441 -0.00051676432 z M 0.28318685 0 L 0.28318685 0.00051676432 C 0.28318685 0.10332363 0.28952514 0.2044991 0.30230713 0.30385742 C 0.20339576 0.2911963 0.10284658 0.28422038 0.00051676432 0.28422038 L 0 0.28422038 L 0 0.47283936 L 0.00051676432 0.47283936 C 0.11473415 0.47283936 0.22647958 0.48168179 0.33589681 0.49867757 C 0.35849849 0.60365853 0.38818445 0.70581475 0.42426351 0.80511882 C 0.28798004 0.77382477 0.14626366 0.75705973 0.00051676432 0.75705973 L 0 0.75705973 L 0 0.94516195 L 0.00051676432 0.94516195 C 0.18074937 0.94516195 0.35384191 0.97349067 0.51676432 1.0252604 C 0.59554281 1.1881913 0.69313042 1.340508 0.80563558 1.480013 C 0.57678031 1.3215802 0.29940724 1.2288656 0.00051676432 1.2288656 L 0 1.2288656 L 0 1.4185181 L 0.00051676432 1.4185181 C 0.6801124 1.4185181 1.2283488 1.9660993 1.2283488 2.6453166 L 1.2283488 2.6458333 L 1.227832 2.6458333 L 1.227832 2.6463501 C 1.227832 3.4276537 1.8635777 4.0628011 2.6453166 4.0628011 L 2.6458333 4.0628011 L 2.6458333 4.0633179 L 2.6463501 4.0633179 C 3.3259457 4.0633179 3.8741821 4.6114159 3.8741821 5.2906331 L 3.8741821 5.2911499 L 4.0638346 5.2911499 L 4.0638346 5.2906331 C 4.0638346 4.9919784 3.9706245 4.7147287 3.8121704 4.4860311 C 3.9518007 4.5982997 4.1044113 4.6947828 4.2674398 4.7733521 C 4.3193087 4.9363758 4.3475382 5.1102952 4.3475382 5.2906331 L 4.3475382 5.2911499 L 4.5356405 5.2911499 L 4.5356405 5.2906331 C 4.5356405 5.1445487 4.5190263 5.0024191 4.4875814 4.8658529 C 4.5868203 4.9017868 4.6891245 4.9312008 4.7940226 4.9537028 C 4.8111636 5.0635132 4.8203776 5.1759549 4.8203776 5.2906331 L 4.8203776 5.2911499 L 5.0084798 5.2911499 L 5.0084798 5.2906331 C 5.0084798 5.1879098 5.0016188 5.0865723 4.9888428 4.9872925 C 5.0877947 4.9999475 5.1887826 5.0064128 5.2911499 5.0064128 L 5.2916667 5.0064128 L 5.2916667 4.8183105 L 5.2911499 4.8183105 C 4.0896475 4.8183105 3.1171224 3.8461485 3.1171224 2.6453166 L 3.1181559 2.6453166 L 3.1181559 2.6447998 C 3.1181559 2.3851116 2.9061837 2.172994 2.6463501 2.172994 L 2.6458333 2.172994 L 2.6453166 2.172994 C 1.4438142 2.172994 0.47128906 1.2013486 0.47128906 0.00051676432 L 0.47128906 0 L 0.28318685 0 z M 0.7560262 0 L 0.7560262 0.00051676432 C 0.7560262 1.0426267 1.6026247 1.8887736 2.6453166 1.8887736 L 2.6458333 1.8887736 L 2.6463501 1.8887736 C 3.0649942 1.8887736 3.4023763 2.2263896 3.4023763 2.6447998 L 3.4023763 2.6453166 L 3.4018595 2.6453166 C 3.4018595 3.6874265 4.248458 4.5335734 5.2911499 4.5335734 L 5.2916667 4.5335734 L 5.2916667 4.3454712 L 5.2911499 4.3454712 C 4.3506006 4.3454712 3.5899618 3.5853422 3.5899618 2.6453166 L 3.5909953 2.6453166 L 3.5909953 2.6447998 C 3.5909953 2.1243046 3.1671361 1.7006714 2.6463501 1.7006714 L 2.6458333 1.7006714 L 2.6453166 1.7006714 C 1.7047673 1.7006714 0.94412842 0.94054238 0.94412842 0.00051676432 L 0.94412842 0 L 0.7560262 0 z M 0 1.7011882 L 0 1.8892904 L 0.00051676432 1.8892904 C 0.41916082 1.8892904 0.75654297 2.2269064 0.75654297 2.6453166 L 0.75654297 2.6458333 L 0.7560262 2.6458333 L 0.7560262 2.6463501 C 0.7560262 3.6884601 1.6026247 4.5346069 2.6453166 4.5346069 L 2.6458333 4.5346069 L 2.6463501 4.5346069 C 3.0649942 4.5346069 3.4023763 4.872223 3.4023763 5.2906331 L 3.4023763 5.2911499 L 3.5909953 5.2911499 L 3.5909953 5.2906331 C 3.5909953 4.770138 3.1671361 4.3465047 2.6463501 4.3465047 L 2.6458333 4.3465047 L 2.6453166 4.3465047 C 1.7047673 4.3465047 0.94412842 3.5863758 0.94412842 2.6463501 L 0.94412842 2.6458333 L 0.94516195 2.6458333 L 0.94516195 2.6453166 C 0.94516195 2.1248214 0.52130268 1.7011882 0.00051676432 1.7011882 L 0 1.7011882 z M 1.1663371 1.8407145 C 1.3059673 1.9529831 1.458578 2.0494663 1.6216064 2.1280355 C 1.6734754 2.2910592 1.7017049 2.4649786 1.7017049 2.6453166 L 1.7017049 2.6458333 L 1.7006714 2.6458333 L 1.7006714 2.6463501 C 1.7006714 3.166846 2.1245301 3.5904785 2.6453166 3.5904785 L 2.6458333 3.5904785 L 2.6463501 3.5904785 C 2.8265827 3.5904785 2.9996753 3.618807 3.1625977 3.670577 C 3.2413762 3.833508 3.3389637 3.9853078 3.4514689 4.1248128 C 3.2226136 3.96638 2.9452405 3.8736654 2.6463501 3.8736654 L 2.6458333 3.8736654 L 2.6458333 3.8731486 L 2.6453166 3.8731486 C 1.9657203 3.8731486 1.4174845 3.325568 1.4174845 2.6463501 L 1.4174845 2.6458333 L 1.4180013 2.6458333 L 1.4180013 2.6453166 C 1.4180013 2.3466619 1.3247911 2.0694121 1.1663371 1.8407145 z M 0 2.1740275 L 0 2.3621297 L 0.00051676432 2.3621297 C 0.15820775 2.3621297 0.28370361 2.4877134 0.28370361 2.6453166 L 0.28370361 2.6458333 L 0.28318685 2.6458333 L 0.28318685 2.6463501 C 0.28318685 2.749157 0.28952514 2.8503325 0.30230713 2.9496908 C 0.20339573 2.9370297 0.10284656 2.9300537 0.00051676432 2.9300537 L 0 2.9300537 L 0 3.1186727 L 0.00051676432 3.1186727 C 0.11473415 3.1186727 0.22647962 3.1275129 0.33589681 3.1445109 C 0.35849879 3.2494919 0.38818455 3.3516481 0.42426351 3.4509521 C 0.28798045 3.4196579 0.14626362 3.4028931 0.00051676432 3.4028931 L 0 3.4028931 L 0 3.5909953 L 0.00051676432 3.5909953 C 0.18074938 3.5909953 0.35384199 3.6193238 0.51676432 3.6710937 C 0.59554284 3.8340248 0.69313039 3.9863413 0.80563558 4.1258464 C 0.57678031 3.9674135 0.29940717 3.8746989 0.00051676432 3.8746989 L 0 3.8746989 L 0 4.0643514 L 0.00051676432 4.0643514 C 0.68011238 4.0643514 1.2283488 4.6119327 1.2283488 5.2911499 L 1.2283488 5.2916667 L 1.4180013 5.2916667 L 1.4180013 5.2911499 C 1.4180013 4.9924952 1.3247911 4.7152454 1.1663371 4.4865479 C 1.3059673 4.5988164 1.458578 4.6952996 1.6216064 4.7738688 C 1.6734754 4.9368926 1.7017049 5.110812 1.7017049 5.2911499 L 1.7017049 5.2916667 L 1.8898071 5.2916667 L 1.8898071 5.2911499 C 1.8898071 5.1450654 1.873193 5.0029359 1.841748 4.8663696 C 1.9409869 4.9023036 2.0432912 4.9317176 2.1481893 4.9542196 C 2.1653303 5.06403 2.1745443 5.1764716 2.1745443 5.2911499 L 2.1745443 5.2916667 L 2.3626465 5.2916667 L 2.3626465 5.2911499 C 2.3626465 5.1884266 2.3557854 5.087089 2.3430094 4.9878092 C 2.4419613 5.0004642 2.5429493 5.0074463 2.6453166 5.0074463 L 2.6458333 5.0074463 L 2.6463501 5.0074463 C 2.8040411 5.0074463 2.9295369 5.13303 2.9295369 5.2906331 L 2.9295369 5.2911499 L 3.1181559 5.2911499 L 3.1181559 5.2906331 C 3.1181559 5.0309449 2.9061837 4.8188273 2.6463501 4.8188273 L 2.6458333 4.8188273 L 2.6453166 4.8188273 C 1.4438142 4.8188273 0.47128906 3.847182 0.47128906 2.6463501 L 0.47128906 2.6458333 L 0.47232259 2.6458333 L 0.47232259 2.6453166 C 0.47232259 2.3856283 0.2603504 2.1740275 0.00051676432 2.1740275 L 0 2.1740275 z M 1.841748 2.2205363 C 1.9409869 2.2564703 2.0432912 2.2858843 2.1481893 2.3083862 C 2.1653303 2.4181966 2.1745443 2.5306383 2.1745443 2.6453166 L 2.1745443 2.6458333 L 2.1735107 2.6458333 L 2.1735107 2.6463501 C 2.1735107 2.9060382 2.385483 3.1176392 2.6453166 3.1176392 L 2.6458333 3.1176392 L 2.6463501 3.1176392 C 2.7605675 3.1176392 2.872313 3.1264794 2.9817301 3.1434774 C 3.0043321 3.2484584 3.0340179 3.3506146 3.0700968 3.4499186 C 2.9338138 3.4186242 2.792097 3.4023763 2.6463501 3.4023763 L 2.6458333 3.4023763 L 2.6453166 3.4023763 C 2.2266726 3.4023763 1.8892904 3.0647603 1.8892904 2.6463501 L 1.8892904 2.6458333 L 1.8898071 2.6458333 L 1.8898071 2.6453166 C 1.8898071 2.4992321 1.873193 2.3571026 1.841748 2.2205363 z M 2.3430094 2.3419759 C 2.4419613 2.3546309 2.5429493 2.361613 2.6453166 2.361613 L 2.6458333 2.361613 L 2.6463501 2.361613 C 2.8040411 2.361613 2.9295369 2.4871967 2.9295369 2.6447998 L 2.9295369 2.6453166 L 2.9290202 2.6453166 C 2.9290202 2.7481235 2.9353635 2.8492989 2.9481405 2.9486572 C 2.8492286 2.9359962 2.7486799 2.9295369 2.6463501 2.9295369 L 2.6458333 2.9295369 L 2.6453166 2.9295369 C 2.4876256 2.9295369 2.3621297 2.8039539 2.3621297 2.6463501 L 2.3621297 2.6458333 L 2.3626465 2.6458333 L 2.3626465 2.6453166 C 2.3626465 2.5425933 2.3557854 2.4412557 2.3430094 2.3419759 z M 0 4.3470215 L 0 4.5351237 L 0.00051676432 4.5351237 C 0.41916085 4.5351237 0.75654297 4.8727397 0.75654297 5.2911499 L 0.75654297 5.2916667 L 0.94516195 5.2916667 L 0.94516195 5.2911499 C 0.94516195 4.7706547 0.52130274 4.3470215 0.00051676432 4.3470215 L 0 4.3470215 z M 0 4.8198608 L 0 5.0079631 L 0.00051676432 5.0079631 C 0.15820781 5.0079631 0.28370361 5.1335468 0.28370361 5.2911499 L 0.28370361 5.2916667 L 0.47232259 5.2916667 L 0.47232259 5.2911499 C 0.47232259 5.0314617 0.2603504 4.8198608 0.00051676432 4.8198608 L 0 4.8198608 z " />
  </g>
</svg>
