<?xml version="1.0" encoding="UTF-8" standalone="no"?>
<!-- Created with Inkscape (http://www.inkscape.org/) -->

<svg
   width="50"
   height="50"
   viewBox="0 0 13.229166 13.229167"
   version="1.1"
   id="svg5"
   inkscape:version="1.2.1 (9c6d41e410, 2022-07-14)"
   sodipodi:docname="drawing.svg"
   xmlns:inkscape="http://www.inkscape.org/namespaces/inkscape"
   xmlns:sodipodi="http://sodipodi.sourceforge.net/DTD/sodipodi-0.dtd"
   xmlns="http://www.w3.org/2000/svg"
   xmlns:svg="http://www.w3.org/2000/svg">
  <sodipodi:namedview
     id="namedview7"
     pagecolor="#ffffff"
     bordercolor="#000000"
     borderopacity="0.25"
     inkscape:showpageshadow="2"
     inkscape:pageopacity="0.0"
     inkscape:pagecheckerboard="0"
     inkscape:deskcolor="#d1d1d1"
     inkscape:document-units="mm"
     showgrid="false"
     inkscape:zoom="8"
     inkscape:cx="15.1875"
     inkscape:cy="25.375"
     inkscape:window-width="1920"
     inkscape:window-height="1017"
     inkscape:window-x="-8"
     inkscape:window-y="-8"
     inkscape:window-maximized="1"
     inkscape:current-layer="layer1" />
  <defs
     id="defs2" />
  <g
     inkscape:label="Layer 1"
     inkscape:groupmode="layer"
     id="layer1">
    <path
       id="path236"
       style="fill:#d40000;stroke-width:6.03826;stroke-linecap:square"
       d="M 6.6145833 0 L 6.6145833 8.9296875 L 7.2760417 8.9296875 A 0.66145831 0.66145831 0 0 1 6.9453125 9.5027791 A 0.66145831 0.66145831 0 0 1 6.6145833 9.5906291 L 6.6145833 10.252604 L 8.2682292 10.252604 L 8.2682292 10.914062 L 6.6145833 10.914062 L 6.6145833 13.229167 C 8.5839551 13.229255 10.403766 11.968506 11.388452 9.921875 C 11.589627 9.5034442 11.751998 9.0598244 11.87266 8.5989583 L 12.126908 8.5989583 C 12.737619 8.5989583 13.229167 8.0089335 13.229167 7.2760417 L 13.229167 4.6302083 C 13.229167 3.8973166 12.737619 3.3072917 12.126908 3.3072917 C 12.126908 1.5557103 11.003351 0.13085237 9.5704753 0.0087849935 C 9.5704753 0.0087849935 9.4284161 0 9.3704875 0 L 6.6145833 0 z M 9.2826375 3.9842529 C 9.6227142 3.9838558 9.9555542 4.0669049 10.252604 4.2343669 C 10.866646 4.5888831 11.244877 5.244092 11.244792 5.953125 L 7.2760417 5.953125 C 7.2759563 5.2440921 7.6541887 4.5888832 8.2682292 4.2343669 C 8.5952433 4.0684935 8.942561 3.9846501 9.2826375 3.9842529 z " />
    <path
       id="rect674"
       style="fill:#ff0000;stroke-width:2.90069;stroke-linecap:square"
       d="M 4.9609375 0 A 0.66145831 0.66145831 0 0 0 4.2994792 0.66145833 A 0.66145831 0.66145831 0 0 0 4.9609375 1.3229167 A 0.66145831 0.66145831 0 0 0 5.5340291 0.9921875 L 6.6145833 0.9921875 L 6.6145833 0.33072917 L 5.5335124 0.33072917 A 0.66145831 0.66145831 0 0 0 4.9609375 0 z M 3.3072917 1.6536458 L 2.3709147 2.1941813 A 0.66145831 0.66145831 0 0 0 2.0407023 2.1052979 A 0.66145831 0.66145831 0 0 0 1.379244 2.7667562 A 0.66145831 0.66145831 0 0 0 2.0407023 3.4282145 A 0.66145831 0.66145831 0 0 0 2.7021606 2.7667562 L 3.4850586 2.3151042 L 4.9609375 2.3151042 L 6.6145833 2.3151042 L 6.6145833 1.6536458 L 4.9609375 1.6536458 L 3.3072917 1.6536458 z M 4.1341146 2.6458333 A 0.66145831 0.66145831 0 0 0 3.4726562 3.3072917 A 0.66145831 0.66145831 0 0 0 4.1341146 3.96875 A 0.66145831 0.66145831 0 0 0 4.7072062 3.6380208 L 5.7877604 3.6380208 L 6.6145833 3.6380208 L 6.6145833 2.9765625 L 5.7877604 2.9765625 L 4.7066895 2.9765625 A 0.66145831 0.66145831 0 0 0 4.1341146 2.6458333 z M 5.7877604 3.96875 A 0.66145831 0.66145831 0 0 0 5.1263021 4.6302083 A 0.66145831 0.66145831 0 0 0 5.7877604 5.2916667 A 0.66145831 0.66145831 0 0 0 6.3608521 4.9609375 L 6.6145833 4.9609375 L 6.6145833 4.2994792 L 6.3603353 4.2994792 A 0.66145831 0.66145831 0 0 0 5.7877604 3.96875 z M 2.2060669 4.5532104 A 0.66145831 0.66145831 0 0 0 1.5446086 5.2146688 A 0.66145831 0.66145831 0 0 0 2.2060669 5.8761271 A 0.66145831 0.66145831 0 0 0 2.7791585 5.5453979 L 3.6819458 5.5453979 L 4.9609375 6.2838542 L 6.6145833 6.2838542 L 6.6145833 5.6223958 L 5.1387044 5.6223958 L 3.8597127 4.8839396 L 2.7786418 4.8839396 A 0.66145831 0.66145831 0 0 0 2.2060669 4.5532104 z M 1.1043254 6.6145833 A 0.66145831 0.66145831 0 0 0 0.44286702 7.2760417 A 0.66145831 0.66145831 0 0 0 1.1043254 7.9375 A 0.66145831 0.66145831 0 0 0 1.677417 7.6067708 L 2.5802043 7.6067708 L 3.8597127 8.3452271 L 5.1387044 7.6067708 L 6.6145833 7.6067708 L 6.6145833 6.9453125 L 4.9609375 6.9453125 L 3.8597127 7.5814494 L 2.7579712 6.9453125 L 1.6769002 6.9453125 A 0.66145831 0.66145831 0 0 0 1.1043254 6.6145833 z M 4.9609375 8.2682292 L 4.0245605 8.8087646 A 0.66145831 0.66145831 0 0 0 3.6943481 8.7198812 A 0.66145831 0.66145831 0 0 0 3.0328898 9.3813395 A 0.66145831 0.66145831 0 0 0 3.6943481 10.042798 A 0.66145831 0.66145831 0 0 0 4.3558065 9.3813395 L 5.1387044 8.9296875 L 6.6145833 8.9296875 L 6.6145833 8.2682292 L 4.9609375 8.2682292 z M 5.7877604 9.2604167 A 0.66145831 0.66145831 0 0 0 5.1263021 9.921875 A 0.66145831 0.66145831 0 0 0 5.7877604 10.583333 A 0.66145831 0.66145831 0 0 0 6.3608521 10.252604 L 6.6145833 10.252604 L 6.6145833 9.5911458 L 6.3603353 9.5911458 A 0.66145831 0.66145831 0 0 0 5.7877604 9.2604167 z M 3.3072917 10.583333 A 0.66145831 0.66145831 0 0 0 2.6458333 11.244792 A 0.66145831 0.66145831 0 0 0 3.3072917 11.90625 A 0.66145831 0.66145831 0 0 0 3.8803833 11.575521 L 4.9609375 11.575521 L 6.6145833 11.575521 L 6.6145833 10.914062 L 4.9609375 10.914062 L 3.8798665 10.914062 A 0.66145831 0.66145831 0 0 0 3.3072917 10.583333 z M 4.9609375 11.90625 A 0.66145831 0.66145831 0 0 0 4.2994792 12.567708 A 0.66145831 0.66145831 0 0 0 4.9609375 13.229167 A 0.66145831 0.66145831 0 0 0 5.5340291 12.898437 L 6.6145833 12.898437 L 6.6145833 12.236979 L 5.5335124 12.236979 A 0.66145831 0.66145831 0 0 0 4.9609375 11.90625 z " />
  </g>
</svg>
