<svg width="40" height="40" viewBox="0 0 40 40" fill="none" xmlns="http://www.w3.org/2000/svg">
<path fill-rule="evenodd" clip-rule="evenodd" d="M20 0C8.95431 0 0 8.95431 0 20C0 31.0457 8.95431 40 20 40C31.0457 40 40 31.0457 40 20C40 8.95431 31.0457 0 20 0ZM16.648 25.6798C16.7608 25.6798 16.8502 25.6176 16.8502 25.5399C16.8502 25.4504 16.7491 25.3882 16.6325 25.3999C16.5197 25.3999 16.4303 25.4621 16.4303 25.5399C16.4303 25.6293 16.5197 25.6915 16.648 25.6798ZM15.8082 25.5554C15.6916 25.5321 15.6138 25.4427 15.641 25.3649C15.6682 25.2871 15.781 25.2483 15.8821 25.2755C15.9987 25.3105 16.0726 25.3999 16.0493 25.4777C16.0259 25.5554 15.9093 25.5943 15.8082 25.5554ZM17.1807 25.4893C17.169 25.3999 17.2468 25.326 17.3595 25.2988C17.4723 25.2871 17.5772 25.3377 17.5889 25.4116C17.6006 25.4893 17.5228 25.5632 17.4101 25.5904C17.2934 25.6176 17.1923 25.5671 17.1807 25.4893ZM10.4 19.8867C10.4 14.4941 14.5252 10.4 19.9178 10.4C25.3105 10.4 29.6845 14.4941 29.6845 19.8867C29.6845 24.1985 27.0484 27.8882 23.1604 29.179C22.6666 29.2685 22.4878 28.9613 22.4878 28.7086C22.4878 28.6033 22.4891 28.3558 22.4908 28.0244C22.4942 27.3526 22.4995 26.3357 22.4995 25.4582C22.4995 24.5445 22.1962 23.9613 21.8385 23.6542C24.0119 23.4092 26.3019 23.1099 26.3019 19.358C26.3019 18.2926 25.9209 17.7561 25.2988 17.0679C25.3999 16.8152 25.7304 15.7771 25.1977 14.428C24.3851 14.1714 22.515 15.4777 22.515 15.4777C21.7374 15.26 20.9015 15.1472 20.0733 15.1472C19.2452 15.1472 18.4093 15.26 17.6317 15.4777C17.6317 15.4777 15.7616 14.1752 14.949 14.428C14.4163 15.7732 14.7468 16.8152 14.8479 17.0679C14.2258 17.7522 13.9303 18.2887 13.9303 19.358C13.9303 23.0982 16.1231 23.4131 18.2965 23.6542C18.0166 23.9108 17.7639 24.3424 17.6744 24.9644C17.1185 25.2211 15.6916 25.6526 14.8401 24.1519C14.3074 23.2265 13.3393 23.1488 13.3393 23.1488C12.3868 23.1371 13.2771 23.7475 13.2771 23.7475C13.9148 24.0391 14.358 25.1705 14.358 25.1705C14.9295 26.9123 17.6511 26.3291 17.6511 26.3291C17.6511 26.8582 17.656 27.6026 17.6595 28.1269C17.6613 28.4117 17.6628 28.6315 17.6628 28.7164C17.6628 28.9691 17.4878 29.2762 16.9902 29.1868C13.1138 27.8882 10.4 24.1985 10.4 19.8867ZM14.2064 24.0119C14.1403 23.938 14.1286 23.8486 14.1791 23.8097C14.2297 23.7592 14.3191 23.7864 14.3813 23.8486C14.4474 23.9225 14.4591 24.0119 14.4085 24.0508C14.358 24.1013 14.2686 24.0741 14.2064 24.0119ZM13.8487 23.6464C13.7709 23.6075 13.732 23.5453 13.7592 23.4948C13.7864 23.4559 13.8487 23.4442 13.9264 23.4676C14.0042 23.5064 14.0431 23.5687 14.0158 23.6192C13.9886 23.6736 13.9109 23.6853 13.8487 23.6464ZM15.0695 25.12C14.9801 25.0461 14.9567 24.9295 15.0189 24.8789C15.0695 24.8167 15.1861 24.8284 15.2717 24.9178C15.3494 24.9917 15.3728 25.1083 15.3222 25.1588C15.2717 25.2211 15.1589 25.2094 15.0695 25.12ZM14.5757 24.5368C14.5135 24.4473 14.5135 24.3463 14.5757 24.3074C14.6379 24.2568 14.739 24.2957 14.7934 24.3851C14.8556 24.4746 14.8556 24.5756 14.7934 24.6262C14.7429 24.6651 14.6379 24.6262 14.5757 24.5368Z" fill="white"/>
</svg>
