<svg width="15" height="16" viewBox="0 0 15 16" fill="none" xmlns="http://www.w3.org/2000/svg">
<path d="M6.32812 0.5H8.67188C9.06152 0.5 9.375 0.813477 9.375 1.20312V6.125H11.9443C12.4658 6.125 12.7266 6.75488 12.3574 7.12402L7.90137 11.583C7.68164 11.8027 7.32129 11.8027 7.10156 11.583L2.63965 7.12402C2.27051 6.75488 2.53125 6.125 3.05273 6.125H5.625V1.20312C5.625 0.813477 5.93848 0.5 6.32812 0.5ZM15 11.5156V14.7969C15 15.1865 14.6865 15.5 14.2969 15.5H0.703125C0.313477 15.5 0 15.1865 0 14.7969V11.5156C0 11.126 0.313477 10.8125 0.703125 10.8125H5.00098L6.43652 12.248C7.02539 12.8369 7.97461 12.8369 8.56348 12.248L9.99902 10.8125H14.2969C14.6865 10.8125 15 11.126 15 11.5156ZM11.3672 14.0938C11.3672 13.7715 11.1035 13.5078 10.7812 13.5078C10.459 13.5078 10.1953 13.7715 10.1953 14.0938C10.1953 14.416 10.459 14.6797 10.7812 14.6797C11.1035 14.6797 11.3672 14.416 11.3672 14.0938ZM13.2422 14.0938C13.2422 13.7715 12.9785 13.5078 12.6562 13.5078C12.334 13.5078 12.0703 13.7715 12.0703 14.0938C12.0703 14.416 12.334 14.6797 12.6562 14.6797C12.9785 14.6797 13.2422 14.416 13.2422 14.0938Z" fill="white"/>
</svg>
