<?xml version="1.0" encoding="UTF-8" standalone="no"?>
<svg
   viewBox="0 0 576 512"
   version="1.1"
   id="svg192"
   sodipodi:docname="menu__exit--white.svg"
   inkscape:version="1.2.1 (9c6d41e410, 2022-07-14)"
   xmlns:inkscape="http://www.inkscape.org/namespaces/inkscape"
   xmlns:sodipodi="http://sodipodi.sourceforge.net/DTD/sodipodi-0.dtd"
   xmlns="http://www.w3.org/2000/svg"
   xmlns:svg="http://www.w3.org/2000/svg">
  <defs
     id="defs196" />
  <sodipodi:namedview
     id="namedview194"
     pagecolor="#ffffff"
     bordercolor="#000000"
     borderopacity="0.25"
     inkscape:showpageshadow="2"
     inkscape:pageopacity="0.0"
     inkscape:pagecheckerboard="0"
     inkscape:deskcolor="#d1d1d1"
     showgrid="false"
     inkscape:zoom="1.5898438"
     inkscape:cx="287.76413"
     inkscape:cy="256"
     inkscape:window-width="1920"
     inkscape:window-height="1017"
     inkscape:window-x="-8"
     inkscape:window-y="-8"
     inkscape:window-maximized="1"
     inkscape:current-layer="svg192" />
  <!--!Font Awesome Free 6.6.0 by @fontawesome - https://fontawesome.com License - https://fontawesome.com/license/free Copyright 2024 Fonticons, Inc.-->
  <path
     d="M320 32c0-9.9-4.5-19.2-12.3-25.2S289.8-1.4 280.2 1l-179.9 45C79 51.3 64 70.5 64 92.5L64 448l-32 0c-17.7 0-32 14.3-32 32s14.3 32 32 32l64 0 192 0 32 0 0-32 0-448zM256 256c0 17.7-10.7 32-24 32s-24-14.3-24-32s10.7-32 24-32s24 14.3 24 32zm96-128l96 0 0 352c0 17.7 14.3 32 32 32l64 0c17.7 0 32-14.3 32-32s-14.3-32-32-32l-32 0 0-320c0-35.3-28.7-64-64-64l-96 0 0 64z"
     id="path190"
     style="fill:#ffffff;fill-opacity:1" />
</svg>
