<?xml version="1.0" encoding="UTF-8" standalone="no"?>
<svg
   width="25"
   height="26"
   viewBox="0 0 25 26"
   fill="none"
   version="1.1"
   id="svg604"
   sodipodi:docname="page__gallery.svg"
   inkscape:version="1.2.1 (9c6d41e410, 2022-07-14)"
   xmlns:inkscape="http://www.inkscape.org/namespaces/inkscape"
   xmlns:sodipodi="http://sodipodi.sourceforge.net/DTD/sodipodi-0.dtd"
   xmlns="http://www.w3.org/2000/svg"
   xmlns:svg="http://www.w3.org/2000/svg">
  <defs
     id="defs608" />
  <sodipodi:namedview
     id="namedview606"
     pagecolor="#ffffff"
     bordercolor="#000000"
     borderopacity="0.25"
     inkscape:showpageshadow="2"
     inkscape:pageopacity="0.0"
     inkscape:pagecheckerboard="0"
     inkscape:deskcolor="#d1d1d1"
     showgrid="false"
     inkscape:zoom="16.096154"
     inkscape:cx="1.5221027"
     inkscape:cy="9.1326165"
     inkscape:window-width="1920"
     inkscape:window-height="1017"
     inkscape:window-x="-8"
     inkscape:window-y="-8"
     inkscape:window-maximized="1"
     inkscape:current-layer="svg604" />
  <path
     d="m 20.833333,19.944416 v 0.6945 c 0,1.1505 -0.932667,2.083334 -2.083333,2.083334 H 2.083333 C 0.932733,22.72225 -4e-7,21.789416 -4e-7,20.638916 V 9.5277494 c 0,-1.1506 0.9327334,-2.083333 2.0833334,-2.083333 h 0.69445 V 16.47225 c 0,1.9145 1.5576334,3.472166 3.4722164,3.472166 z M 25,16.47225 V 5.361083 C 25,4.210483 24.067333,3.2777496 22.916666,3.2777496 H 6.2499994 c -1.1506,0 -2.083333,0.9327334 -2.083333,2.0833334 V 16.47225 c 0,1.1505 0.932733,2.083333 2.083333,2.083333 H 22.916666 C 24.067333,18.555583 25,17.62275 25,16.47225 Z M 11.111166,7.4444164 c 0,1.1506 -0.932833,2.083333 -2.0833326,2.083333 -1.150667,0 -2.083384,-0.932733 -2.083384,-2.083333 0,-1.1506 0.932717,-2.0833334 2.083384,-2.0833334 1.1504996,0 2.0833326,0.9327334 2.0833326,2.0833334 z m -4.1667166,6.2499996 2.40955,-2.4095 c 0.203334,-0.203333 0.533167,-0.203333 0.7364996,0 l 1.715,1.715 5.881834,-5.8816666 c 0.203333,-0.203383 0.533167,-0.203383 0.7365,0 l 3.798333,3.7983336 v 4.861166 H 6.9444494 Z"
     fill="#0f4483"
     id="path602"
     style="stroke-width:1" />
</svg>
