<?xml version="1.0" encoding="UTF-8" standalone="no"?>
<svg
   width="25"
   height="26"
   viewBox="0 0 25 26"
   fill="none"
   version="1.1"
   id="svg471"
   sodipodi:docname="page__contact--white.svg"
   inkscape:version="1.2.1 (9c6d41e410, 2022-07-14)"
   xmlns:inkscape="http://www.inkscape.org/namespaces/inkscape"
   xmlns:sodipodi="http://sodipodi.sourceforge.net/DTD/sodipodi-0.dtd"
   xmlns="http://www.w3.org/2000/svg"
   xmlns:svg="http://www.w3.org/2000/svg">
  <defs
     id="defs475" />
  <sodipodi:namedview
     id="namedview473"
     pagecolor="#ffffff"
     bordercolor="#000000"
     borderopacity="0.25"
     inkscape:showpageshadow="2"
     inkscape:pageopacity="0.0"
     inkscape:pagecheckerboard="0"
     inkscape:deskcolor="#d1d1d1"
     showgrid="false"
     inkscape:zoom="32.192308"
     inkscape:cx="3.4946236"
     inkscape:cy="12.394265"
     inkscape:window-width="1920"
     inkscape:window-height="1017"
     inkscape:window-x="-8"
     inkscape:window-y="-8"
     inkscape:window-maximized="1"
     inkscape:current-layer="svg471" />
  <path
     d="M 12.499999,2.0624996 C 5.5956994,2.0624996 -4e-7,6.6083994 -4e-7,12.218833 c 0,2.421833 1.0449167,4.638666 2.7832001,6.381833 -0.6103501,2.460834 -2.6513668,4.653167 -2.6757834,4.677667 -0.1074167,0.112333 -0.1367167,0.278333 -0.073233,0.424833 0.063467,0.1465 0.2001834,0.234334 0.35645,0.234334 3.2373001,0 5.6640501,-1.552667 6.8652331,-2.509834 C 8.8524994,22.028333 10.624999,22.375 12.499999,22.375 19.404333,22.375 25,17.829166 25,12.218833 25,6.6083994 19.404333,2.0624996 12.499999,2.0624996 Z M 6.2499994,13.781166 c -0.86425,0 -1.5624997,-0.698167 -1.5624997,-1.562333 0,-0.864334 0.6982497,-1.562667 1.5624997,-1.562667 0.86425,0 1.5625,0.698333 1.5625,1.562667 0,0.864166 -0.69825,1.562333 -1.5625,1.562333 z m 6.2499996,0 c -0.864333,0 -1.5625,-0.698167 -1.5625,-1.562333 0,-0.864334 0.698167,-1.562667 1.5625,-1.562667 0.864334,0 1.5625,0.698333 1.5625,1.562667 0,0.864166 -0.698166,1.562333 -1.5625,1.562333 z m 6.250001,0 c -0.864334,0 -1.5625,-0.698167 -1.5625,-1.562333 0,-0.864334 0.698166,-1.562667 1.5625,-1.562667 0.864333,0 1.5625,0.698333 1.5625,1.562667 0,0.864166 -0.698167,1.562333 -1.5625,1.562333 z"
     fill="#0f4483"
     id="path469"
     style="stroke-width:1;fill:#ffffff;fill-opacity:1" />
</svg>
