<?xml version="1.0" encoding="UTF-8" standalone="no"?>
<svg
   width="25"
   height="26"
   viewBox="0 0 25 26"
   fill="none"
   version="1.1"
   id="svg205"
   sodipodi:docname="page__tools--white.svg"
   inkscape:version="1.2.1 (9c6d41e410, 2022-07-14)"
   xmlns:inkscape="http://www.inkscape.org/namespaces/inkscape"
   xmlns:sodipodi="http://sodipodi.sourceforge.net/DTD/sodipodi-0.dtd"
   xmlns="http://www.w3.org/2000/svg"
   xmlns:svg="http://www.w3.org/2000/svg">
  <defs
     id="defs209" />
  <sodipodi:namedview
     id="namedview207"
     pagecolor="#ffffff"
     bordercolor="#000000"
     borderopacity="0.25"
     inkscape:showpageshadow="2"
     inkscape:pageopacity="0.0"
     inkscape:pagecheckerboard="0"
     inkscape:deskcolor="#d1d1d1"
     showgrid="false"
     inkscape:zoom="16.096154"
     inkscape:cx="1.7706093"
     inkscape:cy="16.27718"
     inkscape:window-width="1920"
     inkscape:window-height="1017"
     inkscape:window-x="-8"
     inkscape:window-y="-8"
     inkscape:window-maximized="1"
     inkscape:current-layer="svg205" />
  <path
     d="M 24.46884,19.819329 18.751339,14.102244 C 17.623506,12.974293 15.939006,12.754636 14.581672,13.423607 L 9.3770047,8.2189661 V 5.1870304 L 3.1272712,0.50000012 0.00243759,3.6246981 4.689688,9.8740941 h 3.0320507 l 5.2047673,5.2046069 c -0.664,1.357275 -0.449167,3.041702 0.678666,4.169486 l 5.717501,5.717086 c 0.712833,0.712969 1.865167,0.712969 2.573167,0 l 2.573,-2.572888 c 0.708,-0.712802 0.708,-1.865086 0,-2.573056 z m -8.271001,-8.334138 c 1.381834,0 2.6805,0.537143 3.657001,1.513601 l 0.947166,0.947125 c 0.7715,-0.336818 1.503834,-0.805632 2.138667,-1.44027 1.811334,-1.811422 2.4265,-4.3599119 1.8505,-6.6741445 -0.1075,-0.4394143 -0.659166,-0.5907578 -0.9815,-0.2685218 l -3.6325,3.6324434 -3.315334,-0.551693 -0.551666,-3.3151069 3.6325,-3.6324592 c 0.322333,-0.3222361 0.166,-0.87392887 -0.278167,-0.98622397 -2.314333,-0.5712252 -4.863,0.043948 -6.669667,1.85040317 -1.3915,1.3914564 -2.045667,3.2272102 -2.0115,5.0580979 l 4.0085,4.0084089 c 0.3955,-0.09283 0.805667,-0.14166 1.206,-0.14166 z m -5.073,4.003493 -2.7683343,-2.768213 -7.44101701,7.44551 c -1.2206501,1.220614 -1.2206501,3.198029 0,4.418476 1.22063341,1.220614 3.19805031,1.220614 4.41870001,0 l 6.0348183,-6.034405 c -0.371001,-0.971625 -0.483334,-2.031079 -0.244167,-3.061368 z m -7.9975678,8.055985 c -0.6445,0 -1.1718167,-0.527311 -1.1718167,-1.171783 0,-0.649472 0.5224333,-1.171782 1.1718167,-1.171782 0.6493834,0 1.1718168,0.52231 1.1718168,1.171782 0,0.644472 -0.5224334,1.171783 -1.1718168,1.171783 z"
     fill="#0f4483"
     id="path203"
     style="stroke-width:0.999998;fill:#ffffff;fill-opacity:1" />
</svg>
