<svg width="40" height="40" viewBox="0 0 40 40" fill="none" xmlns="http://www.w3.org/2000/svg">
<path fill-rule="evenodd" clip-rule="evenodd" d="M20 0C8.9543 0 0 8.9543 0 20C0 31.0457 8.9543 40 20 40C31.0457 40 40 31.0457 40 20C40 8.9543 31.0457 0 20 0ZM24.7905 12.8C23.6971 11.8667 21.9771 11.4 19.6305 11.4C18.4305 11.4 17.4038 11.5333 16.5505 11.8C15.6971 12.04 14.9905 12.3867 14.4305 12.84C13.8705 13.2667 13.4571 13.7733 13.1905 14.36C12.9505 14.9467 12.8305 15.5733 12.8305 16.24V17.2H16.2305C16.2305 16.4267 16.4571 15.7733 16.9105 15.24C17.3905 14.68 18.2971 14.4 19.6305 14.4C20.2971 14.4 20.8438 14.48 21.2705 14.64C21.7238 14.7733 22.0838 14.96 22.3505 15.2C22.6171 15.44 22.8038 15.7067 22.9105 16C23.0171 16.2667 23.0705 16.5333 23.0705 16.8V17.56C23.0705 17.88 23.0038 18.16 22.8705 18.4C22.7638 18.64 22.6305 18.8533 22.4705 19.04C22.3105 19.2267 22.1371 19.3733 21.9505 19.48L21.5505 19.68C21.4438 19.7067 21.1771 19.8 20.7505 19.96C20.3238 20.12 19.8171 20.3067 19.2305 20.52C18.6705 20.7067 18.0838 20.9067 17.4705 21.12C16.8571 21.3333 16.3105 21.52 15.8305 21.68C14.8705 22.0267 14.1238 22.6133 13.5905 23.44C13.0838 24.2667 12.8305 25.1867 12.8305 26.2V28.08C12.8305 28.56 12.9105 29.0933 13.0705 29.68C13.2571 30.24 13.6038 30.76 14.1105 31.24C14.6171 31.72 15.3105 32.12 16.1905 32.44C17.0705 32.76 18.2171 32.92 19.6305 32.92C21.0438 32.92 22.1905 32.76 23.0705 32.44C23.9505 32.12 24.6438 31.72 25.1505 31.24C25.6571 30.76 25.9905 30.24 26.1505 29.68C26.3371 29.0933 26.4305 28.56 26.4305 28.08V26.92V18.16V16.24C26.4305 14.8533 25.8838 13.7067 24.7905 12.8ZM22.6705 22.6C22.8838 22.4667 23.0171 22.2667 23.0705 22V26.92C23.0705 27.88 22.8305 28.6267 22.3505 29.16C21.8705 29.6667 20.9638 29.92 19.6305 29.92C18.3238 29.92 17.4305 29.68 16.9505 29.2C16.4705 28.6933 16.2305 27.9333 16.2305 26.92C16.2305 26.4133 16.3238 26 16.5105 25.68C16.7238 25.3333 16.9505 25.0533 17.1905 24.84C17.4838 24.6 17.7905 24.4133 18.1105 24.28C18.5371 24.12 18.9905 23.96 19.4705 23.8C19.8705 23.6667 20.2971 23.52 20.7505 23.36C21.2305 23.1733 21.6705 23.0133 22.0705 22.88C22.2571 22.8267 22.4571 22.7333 22.6705 22.6Z" fill="white"/>
</svg>
