<?xml version="1.0" encoding="UTF-8" standalone="no"?>
<!-- Created with Inkscape (http://www.inkscape.org/) -->

<svg
   width="50"
   height="50"
   viewBox="0 0 13.229166 13.229167"
   version="1.1"
   id="svg5"
   inkscape:version="1.2.1 (9c6d41e410, 2022-07-14)"
   sodipodi:docname="artificialBlue.svg"
   xmlns:inkscape="http://www.inkscape.org/namespaces/inkscape"
   xmlns:sodipodi="http://sodipodi.sourceforge.net/DTD/sodipodi-0.dtd"
   xmlns="http://www.w3.org/2000/svg"
   xmlns:svg="http://www.w3.org/2000/svg">
  <sodipodi:namedview
     id="namedview7"
     pagecolor="#ffffff"
     bordercolor="#000000"
     borderopacity="0.25"
     inkscape:showpageshadow="2"
     inkscape:pageopacity="0.0"
     inkscape:pagecheckerboard="0"
     inkscape:deskcolor="#d1d1d1"
     inkscape:document-units="mm"
     showgrid="false"
     inkscape:zoom="4"
     inkscape:cx="-0.625"
     inkscape:cy="-2.75"
     inkscape:window-width="1920"
     inkscape:window-height="1017"
     inkscape:window-x="-8"
     inkscape:window-y="-8"
     inkscape:window-maximized="1"
     inkscape:current-layer="svg5" />
  <defs
     id="defs2">
    <linearGradient
       id="linearGradient4489"
       inkscape:swatch="solid">
      <stop
         style="stop-color:#ffffff;stop-opacity:1;"
         offset="0"
         id="stop4487" />
    </linearGradient>
    <pattern
       patternUnits="userSpaceOnUse"
       width="37.794924"
       height="37.79492"
       patternTransform="translate(156.625,41.125175)"
       id="pattern5510">
      <path
         id="rect5229"
         style="fill:#ff0000;stroke-width:14.0552;stroke-linecap:square"
         d="M 3.779297,0 A 3.7795276,3.7795276 0 0 0 0.50585953,1.8906255 H 0 v 3.779297 H 0.50585953 A 3.7795276,3.7795276 0 0 0 3.779297,7.558594 3.7795276,3.7795276 0 0 0 7.558594,3.779297 3.7795276,3.7795276 0 0 0 3.779297,0 Z m 11.337891,0 a 3.7795276,3.7795276 0 0 0 -3.779297,3.779297 3.7795276,3.7795276 0 0 0 3.779297,3.779297 3.7795276,3.7795276 0 0 0 3.273438,-1.8886715 H 37.794924 V 1.8906255 H 18.390626 A 3.7795276,3.7795276 0 0 0 15.117188,0 Z M 9.4492195,7.558594 A 3.7795276,3.7795276 0 0 0 6.175782,9.4492195 H 0 V 13.228517 H 6.175782 A 3.7795276,3.7795276 0 0 0 9.4492195,15.119138 3.7795276,3.7795276 0 0 0 13.228517,11.339841 3.7795276,3.7795276 0 0 0 9.4492195,7.558594 Z m 9.4472655,0 a 3.7795276,3.7795276 0 0 0 -3.779297,3.781247 3.7795276,3.7795276 0 0 0 3.779297,3.779297 3.7795276,3.7795276 0 0 0 3.273438,-1.890621 H 37.794924 V 9.4492195 H 22.171877 A 3.7795276,3.7795276 0 0 0 18.896485,7.558594 Z m -3.779297,7.560544 a 3.7795276,3.7795276 0 0 0 -3.273437,1.888676 H 0 v 3.779293 h 11.843751 a 3.7795276,3.7795276 0 0 0 3.273437,1.890625 3.7795276,3.7795276 0 0 0 3.779297,-3.779297 3.7795276,3.7795276 0 0 0 -3.779297,-3.779297 z m 11.339845,0 a 3.7795276,3.7795276 0 0 0 -3.779297,3.779297 3.7795276,3.7795276 0 0 0 3.779297,3.779297 3.7795276,3.7795276 0 0 0 3.273438,-1.890625 h 8.064453 v -3.779293 h -8.066407 a 3.7795276,3.7795276 0 0 0 -3.271484,-1.888676 z m -7.560548,7.558594 a 3.7795276,3.7795276 0 0 0 -3.271483,1.890626 H 0 v 3.779297 h 15.625002 a 3.7795276,3.7795276 0 0 0 3.271483,1.888671 3.7795276,3.7795276 0 0 0 3.781251,-3.779297 3.7795276,3.7795276 0 0 0 -3.781251,-3.779297 z m 11.339845,0 a 3.7795276,3.7795276 0 0 0 -3.779297,3.779297 3.7795276,3.7795276 0 0 0 3.779297,3.779297 3.7795276,3.7795276 0 0 0 3.273438,-1.888671 h 4.285156 V 24.568358 H 33.509768 A 3.7795276,3.7795276 0 0 0 30.23633,22.677732 Z m -6.615235,7.558594 a 3.7795276,3.7795276 0 0 0 -3.273438,1.890626 H 0 v 3.779297 h 20.347657 a 3.7795276,3.7795276 0 0 0 3.273438,1.888671 3.7795276,3.7795276 0 0 0 3.779297,-3.779297 3.7795276,3.7795276 0 0 0 -3.779297,-3.779297 z m 10.394532,0 a 3.7795276,3.7795276 0 0 0 -3.779297,3.779297 3.7795276,3.7795276 0 0 0 3.779297,3.779297 3.7795276,3.7795276 0 0 0 3.273438,-1.888671 h 0.505859 v -1.890626 -1.888671 h -0.505859 a 3.7795276,3.7795276 0 0 0 -3.273438,-1.890626 z" />
    </pattern>
  </defs>
  <path
     id="rect9153"
     style="fill:#0f4483;stroke-width:5.2045;stroke-linecap:square;stroke-dasharray:none;fill-opacity:1"
     d="M 8.872622 -2.0924019 C 8.9633889 -2.1875688 9.0192543 -2.3161244 9.0192543 -2.456924 C 9.0192543 -2.6513977 8.9125517 -2.8225548 8.7548095 -2.9145559 L 8.7548095 -3.7449441 L 8.5448372 -4.1094662 L 8.3158629 -3.9774022 L 8.5445205 -4.1097829 A 0.26452649 0.26452649 0 0 0 8.3158629 -4.2421636 A 0.26452649 0.26452649 0 0 0 8.0865719 -4.1097829 A 0.26452649 0.26452649 0 0 0 8.0862552 -3.8453381 L 8.22592 -3.6036958 L 8.22592 -2.9151893 C 8.0677332 -2.8233023 7.9605251 -2.6520471 7.9605251 -2.4572407 C 7.9605251 -2.1665577 8.199365 -1.9277178 8.4900481 -1.9277178 C 8.6399315 -1.9277178 8.7759993 -1.9910953 8.872622 -2.0924019 z M 7.7977412 -1.1093642 A 0.5291667 0.52916664 0 0 0 7.9339223 -1.4634351 A 0.5291667 0.52916664 0 0 0 7.6691609 -1.9213838 L 7.6691609 -4.1091495 A 0.26458337 0.2645821 0 0 0 7.5370968 -4.3381238 A 0.26458337 0.2645821 0 0 0 7.4047161 -4.3735942 A 0.26458337 0.2645821 0 0 0 7.2723354 -4.3381238 A 0.26458337 0.2645821 0 0 0 7.1402713 -4.1091495 L 7.1402713 -1.9220172 A 0.5291667 0.52916664 0 0 0 6.8755099 -1.4634351 A 0.5291667 0.52916664 0 0 0 7.4047161 -0.93422892 A 0.5291667 0.52916664 0 0 0 7.7977412 -1.1093642 z M 8.6778513 -2.2681706 C 8.6299134 -2.220576 8.5632887 -2.1915291 8.4897314 -2.1915291 C 8.3420397 -2.1915291 8.2262366 -2.3092322 8.2262367 -2.456924 C 8.2262366 -2.6046156 8.3423564 -2.7207353 8.4900481 -2.7207353 C 8.6377397 -2.7207353 8.7554429 -2.6049323 8.7554429 -2.4572407 C 8.7554429 -2.3880102 8.7297799 -2.3250595 8.6870356 -2.2779883 C 8.6840079 -2.2746541 8.6810472 -2.2713436 8.6778513 -2.2681706 z M 6.6987911 -2.0924019 C 6.789558 -2.1875688 6.8457401 -2.3164411 6.8457401 -2.4572407 C 6.8457401 -2.6518945 6.7386447 -2.8229331 6.5806619 -2.9148726 L 6.5806619 -3.6040125 L 6.72001 -3.8453381 A 0.26452649 0.26452649 0 0 0 6.72001 -4.1100996 A 0.26452649 0.26452649 0 0 0 6.4904023 -4.2421636 A 0.26452649 0.26452649 0 0 0 6.2617447 -4.1097829 L 6.4904023 -3.9774022 L 6.2617447 -4.1091495 L 6.0514557 -3.7449441 L 6.0514557 -2.9145559 C 5.8938805 -2.8225122 5.7870108 -2.6512724 5.7870109 -2.456924 C 5.7870108 -2.1662409 6.0255342 -1.9277178 6.3162172 -1.9277178 C 6.4661006 -1.9277178 6.6021683 -1.9910953 6.6987911 -2.0924019 z M 6.503387 -2.2681706 C 6.4559573 -2.220576 6.3900913 -2.1915292 6.3165339 -2.1915291 C 6.1688423 -2.1915291 6.0508223 -2.309549 6.0508223 -2.4572407 C 6.0508223 -2.6049323 6.1685255 -2.7207353 6.3162172 -2.7207353 C 6.4639088 -2.7207353 6.5800286 -2.6046156 6.5800285 -2.456924 C 6.5800285 -2.3876935 6.5548596 -2.3250596 6.5125713 -2.2779883 C 6.5095759 -2.2746541 6.506549 -2.2713436 6.503387 -2.2681706 z M 8.7275733 -4.6963119 L 8.6905193 -6.019169 L 6.1189129 -6.019169 L 6.0818589 -4.6963119 L 8.7275733 -4.6963119 z M 8.6756344 -6.5483752 L 8.6677169 -6.81282 L 6.1417153 -6.81282 L 6.1337978 -6.5483752 L 8.6756344 -6.5483752 z M 8.652832 -7.3420262 L 8.429875 -15.237998 C 8.3246486 -15.99025 7.7896825 -16.60266 7.4047161 -16.60266 C 7.0197497 -16.60266 6.4847836 -15.99025 6.3795572 -15.237998 L 6.1559668 -7.3344254 L 8.652832 -7.3420262 z "
     transform="matrix(-0.815857,-0.815857,0.815857,-0.815857,19.776755,5.5347907)" />
</svg>
