<svg width="20" height="15" viewBox="0 0 20 15" fill="none" xmlns="http://www.w3.org/2000/svg">
<path fill-rule="evenodd" clip-rule="evenodd" d="M0 1.5C0 0.671573 0.671573 0 1.5 0H18.5C19.3284 0 20 0.671573 20 1.5C20 2.32843 19.3284 3 18.5 3H1.5C0.671573 3 0 2.32843 0 1.5ZM0 7.49998C0 6.67155 0.671573 5.99998 1.5 5.99998H18.5C19.3284 5.99998 20 6.67155 20 7.49998C20 8.3284 19.3284 8.99998 18.5 8.99998H1.5C0.671573 8.99998 0 8.3284 0 7.49998ZM1.5 12C0.671573 12 0 12.6716 0 13.5C0 14.3285 0.671573 15 1.5 15H18.5C19.3284 15 20 14.3285 20 13.5C20 12.6716 19.3284 12 18.5 12H1.5Z" fill="#0F4483"/>
</svg>
