<svg width="26" height="26" viewBox="0 0 26 26" fill="none" xmlns="http://www.w3.org/2000/svg">
<g clip-path="url(#clip0_910_218)">
<path d="M12.5739 8.17524L4.57177 14.766V21.8792C4.57177 22.0634 4.64493 22.2401 4.77516 22.3703C4.9054 22.5005 5.08203 22.5737 5.26621 22.5737L10.1299 22.5611C10.3135 22.5602 10.4892 22.4866 10.6187 22.3565C10.7482 22.2263 10.8209 22.0502 10.8209 21.8667V17.7126C10.8209 17.5284 10.8941 17.3518 11.0243 17.2215C11.1545 17.0913 11.3312 17.0181 11.5153 17.0181H14.2931C14.4773 17.0181 14.6539 17.0913 14.7842 17.2215C14.9144 17.3518 14.9876 17.5284 14.9876 17.7126V21.8636C14.9873 21.955 15.005 22.0455 15.0398 22.13C15.0746 22.2145 15.1257 22.2913 15.1902 22.3561C15.2547 22.4208 15.3314 22.4721 15.4158 22.5072C15.5001 22.5422 15.5906 22.5602 15.682 22.5602L20.544 22.5737C20.7282 22.5737 20.9048 22.5005 21.035 22.3703C21.1653 22.2401 21.2384 22.0634 21.2384 21.8792V14.7612L13.238 8.17524C13.1439 8.09943 13.0268 8.05809 12.906 8.05809C12.7852 8.05809 12.668 8.09943 12.5739 8.17524ZM25.2141 12.6548L21.5857 9.66396V3.65224C21.5857 3.51411 21.5308 3.38163 21.4331 3.28396C21.3354 3.18628 21.203 3.13141 21.0648 3.13141H18.6343C18.4961 3.13141 18.3637 3.18628 18.266 3.28396C18.1683 3.38163 18.1134 3.51411 18.1134 3.65224V6.80372L14.2276 3.60667C13.8547 3.2998 13.3867 3.13202 12.9038 3.13202C12.4209 3.13202 11.9529 3.2998 11.58 3.60667L0.593468 12.6548C0.540728 12.6984 0.497094 12.752 0.46506 12.8125C0.433025 12.8729 0.413217 12.9391 0.406768 13.0072C0.400319 13.0753 0.407355 13.1441 0.427474 13.2094C0.447593 13.2748 0.480401 13.3356 0.524024 13.3884L1.63079 14.7338C1.6743 14.7867 1.72781 14.8305 1.78826 14.8627C1.84871 14.8949 1.91492 14.9149 1.98309 14.9214C2.05126 14.928 2.12006 14.9211 2.18555 14.901C2.25104 14.881 2.31193 14.8482 2.36474 14.8046L12.5739 6.39573C12.668 6.31992 12.7852 6.27857 12.906 6.27857C13.0268 6.27857 13.1439 6.31992 13.238 6.39573L23.4476 14.8046C23.5004 14.8482 23.5611 14.881 23.6265 14.9011C23.6919 14.9213 23.7607 14.9283 23.8288 14.9218C23.8969 14.9154 23.9631 14.8956 24.0235 14.8635C24.084 14.8315 24.1376 14.7879 24.1811 14.7351L25.2879 13.3897C25.3315 13.3366 25.3642 13.2755 25.384 13.2098C25.4039 13.1442 25.4106 13.0752 25.4038 13.0069C25.3969 12.9386 25.3766 12.8724 25.3441 12.812C25.3115 12.7515 25.2674 12.6981 25.2141 12.6548Z" fill="#0F4483"/>
</g>
<defs>
<clipPath id="clip0_910_218">
<rect width="25" height="25" fill="white" transform="translate(0.40509 0.351471)"/>
</clipPath>
</defs>
</svg>
