<?xml version="1.0" encoding="UTF-8" standalone="no"?>
<svg
   width="20"
   height="20"
   viewBox="0 0 20 20"
   fill="none"
   version="1.1"
   id="svg7189"
   sodipodi:docname="menu__submenu.svg"
   inkscape:version="1.2.1 (9c6d41e410, 2022-07-14)"
   xmlns:inkscape="http://www.inkscape.org/namespaces/inkscape"
   xmlns:sodipodi="http://sodipodi.sourceforge.net/DTD/sodipodi-0.dtd"
   xmlns="http://www.w3.org/2000/svg"
   xmlns:svg="http://www.w3.org/2000/svg">
  <defs
     id="defs7193" />
  <sodipodi:namedview
     id="namedview7191"
     pagecolor="#ffffff"
     bordercolor="#000000"
     borderopacity="0.25"
     inkscape:showpageshadow="2"
     inkscape:pageopacity="0.0"
     inkscape:pagecheckerboard="0"
     inkscape:deskcolor="#d1d1d1"
     showgrid="false"
     inkscape:zoom="6.975"
     inkscape:cx="-20.860215"
     inkscape:cy="13.620072"
     inkscape:window-width="1920"
     inkscape:window-height="1017"
     inkscape:window-x="-8"
     inkscape:window-y="-8"
     inkscape:window-maximized="1"
     inkscape:current-layer="svg7189" />
  <path
     fill-rule="evenodd"
     clip-rule="evenodd"
     d="M 0,4 C 0,3.171573 0.671573,2.5 1.5,2.5 h 17 C 19.3284,2.5 20,3.171573 20,4 20,4.82843 19.3284,5.5 18.5,5.5 H 1.5 C 0.671573,5.5 0,4.82843 0,4 Z m 0,5.99998 c 0,-0.82843 0.671573,-1.5 1.5,-1.5 h 17 c 0.8284,0 1.5,0.67157 1.5,1.5 0,0.82842 -0.6716,1.5 -1.5,1.5 h -17 c -0.828427,0 -1.5,-0.67158 -1.5,-1.5 z M 1.5,14.5 C 0.671573,14.5 0,15.1716 0,16 c 0,0.8285 0.671573,1.5 1.5,1.5 h 17 c 0.8284,0 1.5,-0.6715 1.5,-1.5 0,-0.8284 -0.6716,-1.5 -1.5,-1.5 z"
     fill="#0f4483"
     id="path7187" />
</svg>
