<?xml version="1.0" encoding="UTF-8" standalone="no"?>
<svg
   width="25"
   height="26"
   viewBox="0 0 25 26"
   fill="none"
   version="1.1"
   id="svg338"
   sodipodi:docname="page__about--white.svg"
   inkscape:version="1.2.1 (9c6d41e410, 2022-07-14)"
   xmlns:inkscape="http://www.inkscape.org/namespaces/inkscape"
   xmlns:sodipodi="http://sodipodi.sourceforge.net/DTD/sodipodi-0.dtd"
   xmlns="http://www.w3.org/2000/svg"
   xmlns:svg="http://www.w3.org/2000/svg">
  <defs
     id="defs342" />
  <sodipodi:namedview
     id="namedview340"
     pagecolor="#ffffff"
     bordercolor="#000000"
     borderopacity="0.25"
     inkscape:showpageshadow="2"
     inkscape:pageopacity="0.0"
     inkscape:pagecheckerboard="0"
     inkscape:deskcolor="#d1d1d1"
     showgrid="false"
     inkscape:zoom="16.096154"
     inkscape:cx="5.125448"
     inkscape:cy="10.002389"
     inkscape:window-width="1920"
     inkscape:window-height="1017"
     inkscape:window-x="-8"
     inkscape:window-y="-8"
     inkscape:window-maximized="1"
     inkscape:current-layer="svg338" />
  <path
     d="m 3.7499997,11.749999 c 1.3788997,0 2.4999997,-1.121166 2.4999997,-2.4999996 0,-1.3789 -1.1211,-2.5 -2.4999997,-2.5 -1.3789001,0 -2.5000001,1.1211 -2.5000001,2.5 0,1.3788336 1.1211,2.4999996 2.5000001,2.4999996 z m 17.5000003,0 c 1.378833,0 2.5,-1.121166 2.5,-2.4999996 0,-1.3789 -1.121167,-2.5 -2.5,-2.5 -1.378834,0 -2.5,1.1211 -2.5,2.5 0,1.3788336 1.121166,2.4999996 2.5,2.4999996 z m 1.25,1.25 H 20 c -0.6875,0 -1.308667,0.277334 -1.761667,0.7265 1.574167,0.863334 2.691333,2.422 2.9335,4.273501 H 23.75 C 24.441333,18 25,17.441333 25,16.749999 v -1.25 c 0,-1.378833 -1.121167,-2.5 -2.5,-2.5 z m -10.000001,0 c 2.418,0 4.375001,-1.957 4.375001,-4.3749996 0,-2.4179664 -1.957001,-4.3749998 -4.375001,-4.3749998 -2.418,0 -4.3749996,1.9570334 -4.3749996,4.3749998 0,2.4179996 1.9569996,4.3749996 4.3749996,4.3749996 z m 3.000001,1.25 h -0.324167 c -0.8125,0.390667 -1.714834,0.625 -2.675834,0.625 -0.961,0 -1.859333,-0.234333 -2.6758326,-0.625 h -0.324167 c -2.484383,0 -4.5,2.015667 -4.5,4.500001 v 1.125 c 0,1.035166 0.83985,1.875 1.875,1.875 H 18.125 C 19.160166,21.75 20,20.910166 20,19.875 V 18.75 c 0,-2.484334 -2.015667,-4.500001 -4.5,-4.500001 z m -8.7382836,-0.5235 c -0.453117,-0.449166 -1.074217,-0.7265 -1.761717,-0.7265 H 2.4999996 c -1.3789,0 -2.5,1.121167 -2.5,2.5 v 1.25 c 0,0.691334 0.5586,1.250001 1.25,1.250001 h 2.5742167 c 0.2461,-1.851501 1.3632831,-3.410167 2.9375001,-4.273501 z"
     fill="#0f4483"
     id="path336"
     style="stroke-width:1;fill:#ffffff;fill-opacity:1" />
</svg>
