<svg width="40" height="40" viewBox="0 0 40 40" fill="none" xmlns="http://www.w3.org/2000/svg">
<path fill-rule="evenodd" clip-rule="evenodd" d="M20 0C8.9543 0 0 8.9543 0 20C0 31.0457 8.9543 40 20 40C31.0457 40 40 31.0457 40 20C40 8.9543 31.0457 0 20 0ZM26.2443 26.8092L28.9271 14.1573C29.1652 13.0421 28.5263 12.6056 27.7961 12.8794L12.0248 18.9553C10.9493 19.376 10.9652 19.9792 11.8423 20.2531L15.8744 21.5151L25.2403 15.6177C25.6808 15.3241 26.0816 15.4868 25.7522 15.7804L18.1762 22.6263L17.8825 26.7894C18.3032 26.7894 18.4857 26.6068 18.704 26.3885L20.6764 24.4915L24.764 27.5037C25.5141 27.9244 26.0419 27.7021 26.2443 26.8092Z" fill="white"/>
</svg>
