<?xml version="1.0" encoding="UTF-8" standalone="no"?>
<svg
   viewBox="0 0 20 20"
   version="1.1"
   id="svg184"
   sodipodi:docname="arrow__slider-double--white.svg"
   width="20"
   height="20"
   inkscape:version="1.2.1 (9c6d41e410, 2022-07-14)"
   xmlns:inkscape="http://www.inkscape.org/namespaces/inkscape"
   xmlns:sodipodi="http://sodipodi.sourceforge.net/DTD/sodipodi-0.dtd"
   xmlns="http://www.w3.org/2000/svg"
   xmlns:svg="http://www.w3.org/2000/svg">
  <defs
     id="defs188" />
  <sodipodi:namedview
     id="namedview186"
     pagecolor="#ffffff"
     bordercolor="#000000"
     borderopacity="0.25"
     inkscape:showpageshadow="2"
     inkscape:pageopacity="0.0"
     inkscape:pagecheckerboard="0"
     inkscape:deskcolor="#d1d1d1"
     showgrid="false"
     inkscape:zoom="25.4375"
     inkscape:cx="0.76658477"
     inkscape:cy="9.1990172"
     inkscape:window-width="1920"
     inkscape:window-height="1017"
     inkscape:window-x="-8"
     inkscape:window-y="-8"
     inkscape:window-maximized="1"
     inkscape:current-layer="svg184" />
  <!--! Font Awesome Pro 6.4.2 by @fontawesome - https://fontawesome.com License - https://fontawesome.com/license (Commercial License) Copyright 2023 Fonticons, Inc. -->
  <path
     d="m 11.176623,11.176624 c 0.65079,-0.650788 0.65079,-1.707667 0,-2.358454 L 2.8465435,0.48809 c -0.65079,-0.650788 -1.707661,-0.650788 -2.358451,0 -0.65079,0.650787 -0.65079,1.707666 0,2.358454 l 5.492641,5.48744 c 1.5571,1.557092 1.873449,1.453376 -0.005,3.332032 l -5.482241,5.48744 c -0.65078,0.650788 -0.65078,1.707667 0,2.358454 0.65079,0.650788 1.707671,0.650788 2.358461,0 l 8.3300795,-8.33008 z"
     id="path182"
     inkscape:label="path182"
     sodipodi:nodetypes="csssccccsscc"
     style="fill:#ffffff;fill-opacity:1;stroke-width:1" />
  <path
     d="m 19.511907,11.176624 c 0.65079,-0.650788 0.65079,-1.7076671 0,-2.3584541 L 11.181828,0.4880901 c -0.65079,-0.650788 -1.7076607,-0.650788 -2.3584507,0 -0.6507895,0.650787 -0.6507895,1.707666 0,2.358454 l 5.4926407,5.4874398 c 1.5571,1.557092 1.873449,1.453376 -0.005,3.3320321 l -5.4822407,5.48744 c -0.6507795,0.650788 -0.6507795,1.707667 0,2.358454 0.65079,0.650788 1.7076707,0.650788 2.3584607,0 l 8.33008,-8.33008 z"
     id="path182-6"
     inkscape:label="path182"
     sodipodi:nodetypes="csssccccsscc"
     style="fill:#ffffff;fill-opacity:1;stroke-width:1" />
</svg>
