<?xml version="1.0" encoding="UTF-8" standalone="no"?>
<svg
   width="15"
   height="15"
   viewBox="0 0 15 15"
   fill="none"
   version="1.1"
   id="svg24824"
   sodipodi:docname="download--white.svg"
   inkscape:version="1.2.1 (9c6d41e410, 2022-07-14)"
   xmlns:inkscape="http://www.inkscape.org/namespaces/inkscape"
   xmlns:sodipodi="http://sodipodi.sourceforge.net/DTD/sodipodi-0.dtd"
   xmlns="http://www.w3.org/2000/svg"
   xmlns:svg="http://www.w3.org/2000/svg">
  <defs
     id="defs24828" />
  <sodipodi:namedview
     id="namedview24826"
     pagecolor="#ffffff"
     bordercolor="#000000"
     borderopacity="0.25"
     inkscape:showpageshadow="2"
     inkscape:pageopacity="0.0"
     inkscape:pagecheckerboard="0"
     inkscape:deskcolor="#d1d1d1"
     showgrid="false"
     inkscape:zoom="36.990524"
     inkscape:cx="5.0958998"
     inkscape:cy="9.0023057"
     inkscape:window-width="1920"
     inkscape:window-height="1017"
     inkscape:window-x="-8"
     inkscape:window-y="-8"
     inkscape:window-maximized="1"
     inkscape:current-layer="svg24824" />
  <path
     d="M 6.32812,0 H 8.67188 C 9.06152,0 9.375,0.313477 9.375,0.70312 V 5.625 h 2.5693 c 0.5215,0 0.7823,0.62988 0.4131,0.99902 L 7.90137,11.083 c -0.21973,0.2197 -0.58008,0.2197 -0.79981,0 L 2.63965,6.62402 C 2.27051,6.25488 2.53125,5.625 3.05273,5.625 H 5.625 V 0.70312 C 5.625,0.313477 5.93848,0 6.32812,0 Z M 15,11.0156 v 3.2813 C 15,14.6865 14.6865,15 14.2969,15 H 0.703125 C 0.313477,15 0,14.6865 0,14.2969 V 11.0156 C 0,10.626 0.313477,10.3125 0.703125,10.3125 H 5.00098 l 1.43554,1.4355 c 0.58887,0.5889 1.53809,0.5889 2.12696,0 l 1.43554,-1.4355 h 4.29788 c 0.3896,0 0.7031,0.3135 0.7031,0.7031 z m -3.6328,2.5782 c 0,-0.3223 -0.2637,-0.586 -0.586,-0.586 -0.3222,0 -0.5859,0.2637 -0.5859,0.586 0,0.3222 0.2637,0.5859 0.5859,0.5859 0.3223,0 0.586,-0.2637 0.586,-0.5859 z m 1.875,0 c 0,-0.3223 -0.2637,-0.586 -0.586,-0.586 -0.3222,0 -0.5859,0.2637 -0.5859,0.586 0,0.3222 0.2637,0.5859 0.5859,0.5859 0.3223,0 0.586,-0.2637 0.586,-0.5859 z"
     fill="#ffffff"
     id="path24822"
     style="fill:#ffffff;fill-opacity:1" />
</svg>
