<svg width="50" height="50" viewBox="0 0 50 50" fill="none" xmlns="http://www.w3.org/2000/svg">
<path d="M0 10C0 4.47715 4.47715 0 10 0H40C45.5228 0 50 4.47715 50 10V40C50 45.5228 45.5228 50 40 50H10C4.47715 50 0 45.5228 0 40V10Z" fill="#0F4483"/>
<path d="M34.5738 15.4958C31.8981 13.2155 27.9186 13.6256 25.4625 16.1598L24.5006 17.151L23.5387 16.1598C21.0875 13.6256 17.1031 13.2155 14.4274 15.4958C11.361 18.1129 11.1998 22.8102 13.944 25.6471L23.3922 35.403C24.0026 36.0329 24.9938 36.0329 25.6041 35.403L35.0524 25.6471C37.8014 22.8102 37.6402 18.1129 34.5738 15.4958Z" fill="black"/>
</svg>
