<?xml version="1.0" encoding="UTF-8" standalone="no"?>
<svg
   width="40"
   height="40"
   viewBox="0 0 40 40"
   fill="none"
   version="1.1"
   id="svg320"
   sodipodi:docname="linkedin--darkblue.svg"
   inkscape:version="1.2.1 (9c6d41e410, 2022-07-14)"
   xmlns:inkscape="http://www.inkscape.org/namespaces/inkscape"
   xmlns:sodipodi="http://sodipodi.sourceforge.net/DTD/sodipodi-0.dtd"
   xmlns="http://www.w3.org/2000/svg"
   xmlns:svg="http://www.w3.org/2000/svg">
  <defs
     id="defs324" />
  <sodipodi:namedview
     id="namedview322"
     pagecolor="#ffffff"
     bordercolor="#000000"
     borderopacity="0.25"
     inkscape:showpageshadow="2"
     inkscape:pageopacity="0.0"
     inkscape:pagecheckerboard="0"
     inkscape:deskcolor="#d1d1d1"
     showgrid="false"
     inkscape:zoom="20.35"
     inkscape:cx="19.97543"
     inkscape:cy="20"
     inkscape:window-width="1920"
     inkscape:window-height="1017"
     inkscape:window-x="-8"
     inkscape:window-y="-8"
     inkscape:window-maximized="1"
     inkscape:current-layer="svg320" />
  <path
     fill-rule="evenodd"
     clip-rule="evenodd"
     d="M20 0C8.9543 0 0 8.9543 0 20C0 31.0457 8.9543 40 20 40C31.0457 40 40 31.0457 40 20C40 8.9543 31.0457 0 20 0ZM11.4937 28.9774H15.1794V17.1083H11.4937V28.9774ZM11.2 13.3345C11.2 14.5131 12.156 15.4893 13.3345 15.4893C14.5127 15.4893 15.469 14.5131 15.469 13.3345C15.469 12.7684 15.2442 12.2255 14.8439 11.8252C14.4436 11.4249 13.9006 11.2 13.3345 11.2C12.7684 11.2 12.2255 11.4249 11.8252 11.8252C11.4249 12.2255 11.2 12.7684 11.2 13.3345ZM25.296 28.9774H28.9738H28.9778V22.4575C28.9778 19.2671 28.2921 16.8107 24.5619 16.8107C22.7687 16.8107 21.5667 17.7948 21.0746 18.7274H21.023V17.1083H17.4881V28.9774H21.1698V23.1004C21.1698 21.5528 21.4635 20.0567 23.3798 20.0567C25.2683 20.0567 25.296 21.8226 25.296 23.1996V28.9774Z"
     fill="white"
     id="path318"
     style="fill:#0e4180;fill-opacity:1" />
</svg>
