<svg width="25" height="25" viewBox="0 0 25 25" fill="none" xmlns="http://www.w3.org/2000/svg">
<path fill-rule="evenodd" clip-rule="evenodd" d="M12.5 25C19.4036 25 25 19.4036 25 12.5C25 5.59644 19.4036 0 12.5 0C5.59644 0 0 5.59644 0 12.5C0 19.4036 5.59644 25 12.5 25ZM15.599 13.6458H16.3802C16.4838 13.6458 16.5832 13.687 16.6564 13.7602C16.7297 13.8335 16.7708 13.9329 16.7708 14.0365V17.1615C16.7708 17.4723 16.6474 17.7703 16.4276 17.9901C16.2078 18.2099 15.9098 18.3333 15.599 18.3333H7.0052C6.6944 18.3333 6.39633 18.2099 6.17656 17.9901C5.95679 17.7703 5.83333 17.4723 5.83333 17.1615V8.56771C5.83333 8.25691 5.95679 7.95884 6.17656 7.73907C6.39633 7.5193 6.6944 7.39583 7.0052 7.39583H10.9115C11.0151 7.39583 11.1144 7.43699 11.1877 7.51024C11.2609 7.5835 11.3021 7.68286 11.3021 7.78646V8.56771C11.3021 8.67131 11.2609 8.77067 11.1877 8.84392C11.1144 8.91718 11.0151 8.95833 10.9115 8.95833H7.39583V16.7708H15.2083V14.0365C15.2083 13.9329 15.2495 13.8335 15.3227 13.7602C15.396 13.687 15.4954 13.6458 15.599 13.6458ZM14.6224 5.83333H17.7474C17.9028 5.83333 18.0518 5.89507 18.1617 6.00495C18.2716 6.11484 18.3333 6.26387 18.3333 6.41927V9.54427C18.3333 10.0692 17.6986 10.3255 17.3324 9.95931L16.4603 9.08822L10.5128 15.0374C10.4583 15.0921 10.3937 15.1354 10.3224 15.165C10.2512 15.1945 10.1749 15.2098 10.0977 15.2098C10.0206 15.2098 9.94426 15.1945 9.87303 15.165C9.80181 15.1354 9.73713 15.0921 9.68269 15.0374L9.12923 14.4849C9.0746 14.4305 9.03126 14.3658 9.00169 14.2946C8.97211 14.2234 8.95689 14.147 8.95689 14.0699C8.95689 13.9928 8.97211 13.9164 9.00169 13.8452C9.03126 13.774 9.0746 13.7093 9.12923 13.6549L15.0797 7.70662L14.2074 6.83431C13.8399 6.4659 14.1007 5.83333 14.6224 5.83333Z" fill="white"/>
</svg>
