<?xml version="1.0" encoding="UTF-8" standalone="no"?>
<svg
   width="40"
   height="40"
   viewBox="0 0 40 40"
   fill="none"
   version="1.1"
   id="svg465"
   sodipodi:docname="whatsapp--darkblue.svg"
   inkscape:version="1.2.1 (9c6d41e410, 2022-07-14)"
   xmlns:inkscape="http://www.inkscape.org/namespaces/inkscape"
   xmlns:sodipodi="http://sodipodi.sourceforge.net/DTD/sodipodi-0.dtd"
   xmlns="http://www.w3.org/2000/svg"
   xmlns:svg="http://www.w3.org/2000/svg">
  <defs
     id="defs469" />
  <sodipodi:namedview
     id="namedview467"
     pagecolor="#ffffff"
     bordercolor="#000000"
     borderopacity="0.25"
     inkscape:showpageshadow="2"
     inkscape:pageopacity="0.0"
     inkscape:pagecheckerboard="0"
     inkscape:deskcolor="#d1d1d1"
     showgrid="false"
     inkscape:zoom="20.925"
     inkscape:cx="10.824373"
     inkscape:cy="20.023895"
     inkscape:window-width="1920"
     inkscape:window-height="1017"
     inkscape:window-x="-8"
     inkscape:window-y="-8"
     inkscape:window-maximized="1"
     inkscape:current-layer="svg465" />
  <path
     fill-rule="evenodd"
     clip-rule="evenodd"
     d="M20 0C8.95431 0 0 8.95431 0 20C0 31.0457 8.95431 40 20 40C31.0457 40 40 31.0457 40 20C40 8.95431 31.0457 0 20 0ZM20.0849 11.2C22.4381 11.2 24.6524 12.1167 26.3151 13.7833C27.9778 15.45 28.9778 17.6603 28.9778 20.0135C28.9778 24.8706 24.9381 28.823 20.0849 28.823H20.081C18.6048 28.823 17.1564 28.454 15.8706 27.7516L11.2 28.9778L12.45 24.4143C11.6802 23.077 11.2754 21.5611 11.2754 20.0095C11.2754 15.1524 15.2278 11.2 20.0849 11.2ZM16.3548 26.3191C17.4778 26.9857 18.7675 27.3389 20.0849 27.3389C24.1206 27.3389 27.4897 24.0532 27.4897 20.0135C27.4937 18.0571 26.6444 16.2198 25.2635 14.8349C23.8825 13.45 22.0452 12.6881 20.0889 12.6881C16.0492 12.6881 12.7635 15.9738 12.7635 20.0095C12.7635 21.3944 13.1484 22.7397 13.8825 23.9064L14.0571 24.1841L13.3191 26.8865L16.0889 26.1603L16.3548 26.3191ZM22.5968 21.1405C22.7992 21.2119 23.8825 21.7437 24.1008 21.8548C24.1365 21.8723 24.1704 21.8885 24.2022 21.9037C24.3646 21.9813 24.4743 22.0337 24.5175 22.1167C24.573 22.2079 24.573 22.6484 24.3905 23.1643C24.2079 23.6802 23.331 24.1484 22.9064 24.2119C22.2079 24.3151 21.6603 24.2635 20.2635 23.6603C18.2052 22.7698 16.8145 20.7815 16.5432 20.3936C16.5232 20.3649 16.5092 20.345 16.5016 20.3349C16.4988 20.3311 16.4956 20.3267 16.4919 20.3217C16.354 20.1337 15.6048 19.1124 15.6048 18.0571C15.6048 17.0451 16.1 16.5144 16.3302 16.2678C16.3464 16.2504 16.3613 16.2345 16.3746 16.2198C16.577 16.0016 16.8151 15.946 16.9619 15.946C17.1087 15.946 17.2556 15.946 17.3825 15.954C17.3989 15.9549 17.416 15.9549 17.4337 15.9549C17.5617 15.9546 17.7217 15.9544 17.8786 16.331C17.9325 16.4611 18.0089 16.6473 18.0913 16.848C18.2878 17.3267 18.518 17.8876 18.5571 17.9659C18.6127 18.077 18.6484 18.204 18.577 18.3508C18.3899 18.7249 18.1966 18.9272 18.0594 19.0707C17.8882 19.2498 17.8046 19.3372 17.9302 19.5532C18.7833 21.0175 19.6325 21.5254 20.9262 22.1722C21.1444 22.2833 21.2754 22.2635 21.4024 22.1167C21.5333 21.9659 21.954 21.4738 22.1008 21.2516C22.2476 21.0294 22.3944 21.0651 22.5968 21.1405Z"
     fill="white"
     id="path463"
     style="fill:#0e4180;fill-opacity:1" />
</svg>
